<svg width="22" height="20" viewBox="0 0 22 20" fill="none" xmlns="http://www.w3.org/2000/svg">
<path d="M8.47754 17.9775V11.6318C8.47754 11.4326 8.53906 11.2715 8.66211 11.1484C8.78516 11.0195 8.95215 10.9551 9.16309 10.9551H12.8545C13.0537 10.9551 13.2148 11.0195 13.3379 11.1484C13.4668 11.2715 13.5312 11.4326 13.5312 11.6318V17.9775H8.47754ZM5.02344 19.1553C4.35547 19.1553 3.83105 18.9707 3.4502 18.6016C3.0752 18.2324 2.8877 17.7227 2.8877 17.0723V7.33398L4.6543 6.13867V16.5273C4.6543 16.8086 4.72754 17.0225 4.87402 17.1689C5.02051 17.3154 5.22852 17.3887 5.49805 17.3887H16.4404C16.7158 17.3887 16.9238 17.3154 17.0645 17.1689C17.2109 17.0225 17.2842 16.8086 17.2842 16.5273V6.12988L19.042 7.33398V17.0723C19.042 17.7227 18.8545 18.2324 18.4795 18.6016C18.1104 18.9707 17.5889 19.1553 16.915 19.1553H5.02344ZM0.242188 9.20605C0.242188 8.93066 0.359375 8.69629 0.59375 8.50293L9.75195 0.8125C10.1328 0.490234 10.5488 0.329102 11 0.329102C11.4512 0.329102 11.8701 0.490234 12.2568 0.8125L21.3975 8.50293C21.6318 8.69629 21.749 8.93945 21.749 9.23242C21.749 9.49023 21.6611 9.69531 21.4854 9.84766C21.3096 9.99414 21.0928 10.0674 20.835 10.0674C20.7002 10.0674 20.5713 10.0352 20.4482 9.9707C20.3252 9.90625 20.2109 9.83008 20.1055 9.74219L11.3867 2.42969C11.2637 2.32422 11.1348 2.27148 11 2.27148C10.8711 2.27148 10.7451 2.32422 10.6221 2.42969L1.90332 9.74219C1.79199 9.83008 1.6748 9.90625 1.55176 9.9707C1.42871 10.0352 1.29688 10.0674 1.15625 10.0674C0.875 10.0674 0.652344 9.98242 0.488281 9.8125C0.324219 9.64258 0.242188 9.44043 0.242188 9.20605ZM16.5283 4.91699V2.77246C16.5283 2.57324 16.5869 2.41504 16.7041 2.29785C16.8271 2.18066 16.9854 2.12207 17.1787 2.12207H18.4004C18.5996 2.12207 18.7549 2.18066 18.8662 2.29785C18.9834 2.41504 19.042 2.57324 19.042 2.77246V7.04395L16.5283 4.91699Z" fill="#72D400"/>
</svg>
