<svg width="16" height="18" viewBox="0 0 16 18" fill="none" xmlns="http://www.w3.org/2000/svg">
<path d="M2.51562 17.0215C1.01562 17.0215 0.265625 16.5146 0.265625 15.501C0.265625 14.8975 0.447266 14.2676 0.810547 13.6113C1.17383 12.9551 1.69238 12.3428 2.36621 11.7744C3.0459 11.2061 3.86035 10.7461 4.80957 10.3945C5.75879 10.043 6.82227 9.86719 8 9.86719C9.17188 9.86719 10.2324 10.043 11.1816 10.3945C12.1367 10.7461 12.9512 11.2061 13.625 11.7744C14.3047 12.3428 14.8232 12.9551 15.1807 13.6113C15.5439 14.2676 15.7256 14.8975 15.7256 15.501C15.7256 16.5146 14.9756 17.0215 13.4756 17.0215H2.51562ZM2.25195 15.4834H13.748C13.8477 15.4834 13.918 15.4658 13.959 15.4307C14.0059 15.3955 14.0293 15.3369 14.0293 15.2549C14.0293 14.9209 13.8975 14.5371 13.6338 14.1035C13.3701 13.6641 12.9805 13.2393 12.4648 12.8291C11.9492 12.4189 11.3164 12.0791 10.5664 11.8096C9.82227 11.54 8.9668 11.4053 8 11.4053C7.0332 11.4053 6.1748 11.54 5.4248 11.8096C4.6748 12.0791 4.04199 12.4189 3.52637 12.8291C3.01074 13.2393 2.62109 13.6641 2.35742 14.1035C2.09375 14.5371 1.96191 14.9209 1.96191 15.2549C1.96191 15.3369 1.98242 15.3955 2.02344 15.4307C2.07031 15.4658 2.14648 15.4834 2.25195 15.4834ZM8 8.84766C7.29102 8.84766 6.64355 8.66016 6.05762 8.28516C5.47754 7.91016 5.01465 7.40625 4.66895 6.77344C4.32324 6.14062 4.15039 5.44336 4.15039 4.68164C4.15039 3.93164 4.32324 3.24609 4.66895 2.625C5.01465 2.00391 5.47754 1.50879 6.05762 1.13965C6.64355 0.770508 7.29102 0.585938 8 0.585938C8.71484 0.585938 9.3623 0.770508 9.94238 1.13965C10.5225 1.50293 10.9854 1.99219 11.3311 2.60742C11.6768 3.22266 11.8496 3.9082 11.8496 4.66406C11.8496 5.43164 11.6768 6.13184 11.3311 6.76465C10.9854 7.39746 10.5195 7.9043 9.93359 8.28516C9.35352 8.66016 8.70898 8.84766 8 8.84766ZM8 7.30957C8.41016 7.30957 8.78223 7.19238 9.11621 6.95801C9.45605 6.71777 9.72852 6.39844 9.93359 6C10.1387 5.60156 10.2412 5.15625 10.2412 4.66406C10.2412 4.18945 10.1387 3.76172 9.93359 3.38086C9.73438 2.99414 9.46484 2.68945 9.125 2.4668C8.78516 2.24414 8.41016 2.13281 8 2.13281C7.5957 2.13281 7.22363 2.24707 6.88379 2.47559C6.54395 2.69824 6.27148 3.00293 6.06641 3.38965C5.86133 3.77051 5.75879 4.20117 5.75879 4.68164C5.75879 5.16797 5.86133 5.61035 6.06641 6.00879C6.27734 6.40723 6.5498 6.72363 6.88379 6.95801C7.22363 7.19238 7.5957 7.30957 8 7.30957Z" fill="#72D400"/>
</svg>
