<svg width="24" height="15" viewBox="0 0 24 15" fill="none" xmlns="http://www.w3.org/2000/svg">
<path d="M0.407227 14.2285V1.08008C0.407227 0.851562 0.477539 0.669922 0.618164 0.535156C0.758789 0.394531 0.943359 0.324219 1.17188 0.324219H22.8457C23.0684 0.324219 23.2471 0.394531 23.3818 0.535156C23.5225 0.669922 23.5928 0.851562 23.5928 1.08008V14.2285C23.5928 14.457 23.5225 14.6416 23.3818 14.7822C23.2471 14.9229 23.0684 14.9932 22.8457 14.9932H1.17188C0.943359 14.9932 0.758789 14.9229 0.618164 14.7822C0.477539 14.6416 0.407227 14.457 0.407227 14.2285ZM2.16504 12.9893C2.16504 13.1533 2.25 13.2354 2.41992 13.2354H21.5889C21.7529 13.2354 21.835 13.1533 21.835 12.9893V2.33691C21.835 2.16699 21.7529 2.08203 21.5889 2.08203H2.41992C2.25 2.08203 2.16504 2.16699 2.16504 2.33691V12.9893ZM3.01758 11.9082V3.40039C3.01758 3.08984 3.16992 2.93457 3.47461 2.93457H20.5342C20.8389 2.93457 20.9912 3.08984 20.9912 3.40039V11.9082C20.9912 12.2246 20.8389 12.3828 20.5342 12.3828H3.47461C3.16992 12.3828 3.01758 12.2246 3.01758 11.9082ZM3.95801 11.2578C3.95801 11.3809 4.0166 11.4424 4.13379 11.4424H19.8662C19.9893 11.4424 20.0508 11.3809 20.0508 11.2578V4.05078C20.0508 3.92773 19.9893 3.86621 19.8662 3.86621H4.13379C4.0166 3.86621 3.95801 3.92773 3.95801 4.05078V11.2578ZM11.9648 12.3828C11.3613 12.3828 10.8164 12.1865 10.3301 11.7939C9.84375 11.4014 9.45703 10.8535 9.16992 10.1504C8.88281 9.44141 8.73926 8.60645 8.73926 7.64551C8.73926 6.69629 8.88281 5.87012 9.16992 5.16699C9.45703 4.45801 9.84375 3.91016 10.3301 3.52344C10.8164 3.13086 11.3613 2.93457 11.9648 2.93457C12.5859 2.93457 13.1455 3.13086 13.6436 3.52344C14.1416 3.91016 14.5371 4.45801 14.8301 5.16699C15.123 5.87012 15.2695 6.69629 15.2695 7.64551C15.2695 8.60645 15.123 9.44141 14.8301 10.1504C14.5371 10.8535 14.1416 11.4014 13.6436 11.7939C13.1455 12.1865 12.5859 12.3828 11.9648 12.3828ZM11.9648 11.2666C12.375 11.2666 12.7471 11.1201 13.0811 10.8271C13.4209 10.5342 13.6934 10.1182 13.8984 9.5791C14.1035 9.03418 14.2061 8.38965 14.2061 7.64551C14.2061 6.91309 14.1035 6.27734 13.8984 5.73828C13.6934 5.19922 13.4209 4.7832 13.0811 4.49023C12.7471 4.19141 12.375 4.04199 11.9648 4.04199C11.5781 4.04199 11.2207 4.19141 10.8926 4.49023C10.5645 4.7832 10.3008 5.19922 10.1016 5.73828C9.9082 6.27734 9.81152 6.91309 9.81152 7.64551C9.81152 8.38965 9.9082 9.03418 10.1016 9.5791C10.3008 10.1182 10.5645 10.5342 10.8926 10.8271C11.2207 11.1201 11.5781 11.2666 11.9648 11.2666Z" fill="#72D400"/>
</svg>
