<svg width="18" height="17" viewBox="0 0 18 17" fill="none" xmlns="http://www.w3.org/2000/svg">
<path d="M3.04102 0.550781H14.9502C15.8877 0.550781 16.5498 0.764648 16.9365 1.19238C17.3291 1.62012 17.5254 2.28516 17.5254 3.1875V7.125C17.5254 8.02148 17.3291 8.68652 16.9365 9.12012C16.5498 9.54785 15.8877 9.76172 14.9502 9.76172H3.04102C2.10352 9.76172 1.43848 9.54785 1.0459 9.12012C0.65918 8.68652 0.46582 8.02148 0.46582 7.125V3.1875C0.46582 2.28516 0.65918 1.62012 1.0459 1.19238C1.43848 0.764648 2.10352 0.550781 3.04102 0.550781ZM2.22363 7.16895C2.22363 7.52051 2.29102 7.77832 2.42578 7.94238C2.56641 8.10059 2.80957 8.17969 3.15527 8.17969H14.8359C15.1816 8.17969 15.4219 8.10059 15.5566 7.94238C15.6973 7.77832 15.7676 7.52051 15.7676 7.16895V3.14355C15.7676 2.79785 15.6973 2.54297 15.5566 2.37891C15.4219 2.21484 15.1816 2.13281 14.8359 2.13281H3.15527C2.80957 2.13281 2.56641 2.21484 2.42578 2.37891C2.29102 2.54297 2.22363 2.79785 2.22363 3.14355V7.16895ZM17.165 12.4688C17.165 12.6914 17.083 12.8789 16.9189 13.0312C16.7549 13.1777 16.5557 13.251 16.3213 13.251H4.61426C4.37402 13.251 4.1748 13.1777 4.0166 13.0312C3.8584 12.8789 3.7793 12.6914 3.7793 12.4688C3.7793 12.2461 3.8584 12.0615 4.0166 11.915C4.1748 11.7686 4.37402 11.6953 4.61426 11.6953H16.3213C16.5557 11.6953 16.7549 11.7686 16.9189 11.915C17.083 12.0615 17.165 12.2461 17.165 12.4688ZM17.165 15.9404C17.165 16.1631 17.083 16.3477 16.9189 16.4941C16.7549 16.6465 16.5557 16.7227 16.3213 16.7227H4.61426C4.37402 16.7227 4.1748 16.6465 4.0166 16.4941C3.8584 16.3477 3.7793 16.1631 3.7793 15.9404C3.7793 15.7178 3.8584 15.5303 4.0166 15.3779C4.1748 15.2314 4.37402 15.1582 4.61426 15.1582H16.3213C16.5557 15.1582 16.7549 15.2314 16.9189 15.3779C17.083 15.5303 17.165 15.7178 17.165 15.9404ZM2.7334 12.4688C2.7334 12.7559 2.63086 13.002 2.42578 13.207C2.2207 13.4121 1.97168 13.5146 1.67871 13.5146C1.3916 13.5146 1.14551 13.4121 0.94043 13.207C0.735352 13.002 0.632812 12.7559 0.632812 12.4688C0.632812 12.1816 0.735352 11.9355 0.94043 11.7305C1.14551 11.5195 1.3916 11.4141 1.67871 11.4141C1.97754 11.4141 2.22656 11.5166 2.42578 11.7217C2.63086 11.9268 2.7334 12.1758 2.7334 12.4688ZM2.7334 15.9404C2.7334 16.2275 2.63086 16.4736 2.42578 16.6787C2.2207 16.8896 1.97168 16.9951 1.67871 16.9951C1.3916 16.9951 1.14551 16.8896 0.94043 16.6787C0.735352 16.4736 0.632812 16.2275 0.632812 15.9404C0.632812 15.6475 0.735352 15.3955 0.94043 15.1846C1.14551 14.9795 1.3916 14.877 1.67871 14.877C1.97754 14.877 2.22656 14.9795 2.42578 15.1846C2.63086 15.3896 2.7334 15.6416 2.7334 15.9404Z" fill="#72D400"/>
</svg>
